<?xml version="1.0" encoding="UTF-8"?>
<svg id="Warstwa_1" xmlns="http://www.w3.org/2000/svg" version="1.1" viewBox="0 0 492 204.11">
  <!-- Generator: Adobe Illustrator 29.1.0, SVG Export Plug-In . SVG Version: 2.1.0 Build 142)  -->
  <defs>
    <style>
      .st0 {
        fill: #deb13d;
      }

      .st1 {
        fill: #fff;
      }
    </style>
  </defs>
  <path class="st1" d="M221.03,105.59v15.32c0,.23.19.43.43.43h48.67c.23,0,.43-.19.43-.43v-15.32c0-.23-.19-.43-.43-.43h-18.89c-.23,0-.43.19-.43.43v6.19c0,.23-.19.43-.43.43h-9.18c-.23,0-.43-.19-.43-.43v-6.19c0-.23-.19-.43-.43-.43h-18.89c-.23,0-.43.19-.43.43Z"/>
  <g>
    <polygon class="st0" points="242.18 99.43 249.38 106.63 249.38 101.55 242.18 94.35 242.18 99.43"/>
    <polygon class="st0" points="242.18 91.52 249.38 98.72 249.38 93.64 242.18 86.44 242.18 91.52"/>
    <path class="st0" d="M249.38,84.31c0-.23-.19-.43-.43-.43h-6.35s-.08.01-.12.02l6.9,6.9v-6.5Z"/>
    <path class="st0" d="M242.18,110.37c0,.23.19.43.43.43h6.35c.23,0,.43-.19.43-.43v-.91l-7.2-7.2v8.11Z"/>
  </g>
  <path class="st1" d="M246,14.68c19.24,0,36.33,9.15,47.2,23.32h4.44c-11.4-16.26-30.27-26.91-51.63-26.91s-40.24,10.64-51.63,26.91h4.44c10.86-14.17,27.96-23.32,47.2-23.32Z"/>
  <path class="st1" d="M246,137.15c32.8,0,59.74-25.06,62.74-57.08h-3.59c-2.98,30.04-28.32,53.5-59.15,53.5s-56.16-23.46-59.15-53.5h-3.59c3,32.02,29.94,57.08,62.74,57.08Z"/>
  <path class="st1" d="M259.51,41.6h-11.73c-.16,0-.28.13-.28.28v30.62c0,.23-.19.43-.43.43h-2.56c-.23,0-.43-.19-.43-.43v-30.62c0-.16-.13-.28-.28-.28h-11.73c-.23,0-.43.19-.43.43v2.94c0,.23.19.43.43.43h8.13c.16,0,.28.13.28.28v30.37c0,.23.19.43.43.43h9.76c.23,0,.43-.19.43-.43v-30.37c0-.16.13-.28.28-.28h8.13c.23,0,.43-.19.43-.43v-2.94c0-.23-.19-.43-.43-.43Z"/>
  <path class="st1" d="M140.08,186.05c-.07.05-.11.11-.13.18l-1.3,4.46c-.03.09-.05.19-.07.3s-.04.22-.07.34c-.02-.12-.05-.23-.07-.34s-.06-.21-.09-.3l-1.49-4.46c-.03-.07-.08-.14-.14-.19-.06-.05-.14-.07-.24-.07h-.33c-.09,0-.17.03-.24.08-.07.06-.11.11-.14.18l-1.49,4.46c-.03.09-.06.2-.09.31s-.05.23-.07.35c-.02-.12-.05-.24-.07-.35s-.05-.22-.07-.31l-1.31-4.46c-.02-.08-.07-.14-.13-.19-.07-.05-.15-.07-.24-.07h-.95l2.17,6.96h1.02l1.65-5c.02-.05.04-.11.06-.18.02-.06.03-.13.05-.21.02.07.03.14.05.21.02.06.04.12.06.18l1.63,5h1.02l2.17-6.96h-.88c-.09,0-.17.03-.24.08Z"/>
  <path class="st1" d="M154.37,186.9c-.3-.32-.67-.56-1.1-.74s-.9-.27-1.42-.27-.99.09-1.42.27c-.43.18-.79.42-1.1.74-.31.32-.54.69-.71,1.13-.17.44-.25.91-.25,1.43s.08.99.25,1.43c.17.43.4.81.71,1.12.31.31.67.56,1.1.74.43.18.9.27,1.42.27s1-.09,1.42-.27.79-.42,1.1-.74c.3-.31.54-.69.71-1.12.17-.44.25-.91.25-1.43s-.08-.99-.25-1.43c-.17-.43-.4-.81-.71-1.13ZM154.01,190.54c-.11.32-.26.59-.46.81-.2.22-.45.39-.73.51-.29.12-.61.18-.97.18s-.67-.06-.96-.18c-.29-.12-.53-.29-.73-.51-.2-.22-.36-.49-.47-.81-.11-.32-.16-.68-.16-1.08s.05-.76.16-1.08c.11-.32.27-.59.47-.81.2-.22.45-.39.73-.51.29-.12.61-.18.96-.18s.68.06.97.18c.29.12.53.29.73.51.2.22.36.49.46.81s.16.68.16,1.08-.05.76-.16,1.08Z"/>
  <path class="st1" d="M166.39,189.93c.25-.07.48-.17.68-.29.2-.13.37-.27.5-.44.14-.17.24-.36.31-.57.07-.21.11-.44.11-.68,0-.3-.05-.57-.15-.81-.1-.24-.26-.45-.47-.62-.21-.17-.48-.31-.81-.4-.33-.09-.72-.14-1.18-.14h-2.05v6.96h1.13v-2.8h.63c.13,0,.23.02.29.05.06.04.12.09.18.17l1.62,2.34c.09.15.23.23.43.23h1.01l-1.88-2.65c-.1-.15-.22-.27-.36-.35ZM165.35,189.31h-.89v-2.45h.92c.51,0,.89.1,1.14.3.25.2.38.49.38.87,0,.19-.03.36-.1.52s-.16.29-.29.4-.29.2-.48.26c-.19.06-.42.09-.68.09Z"/>
  <path class="st1" d="M179.17,189.41c-.08-.06-.16-.11-.26-.15.07-.04.14-.08.21-.14.06-.06.13-.13.2-.21l2.49-2.94h-.97c-.12,0-.22.02-.3.06s-.16.1-.23.2l-2.11,2.51c-.06.07-.13.13-.21.16-.08.03-.18.05-.3.05h-.32v-2.98h-1.13v6.96h1.13v-3.12h.42c.07,0,.14,0,.19.01.06,0,.1.02.15.04.04.02.08.04.11.07.03.03.06.06.1.11l2.17,2.66s.05.07.07.1c.03.03.06.05.1.07.04.02.08.03.13.04.05,0,.11.01.18.01h.99l-2.58-3.28c-.07-.1-.15-.19-.23-.25Z"/>
  <rect class="st1" x="198.69" y="185.97" width="1.14" height="6.96"/>
  <path class="st1" d="M211.79,189.54c-.15-.14-.33-.25-.52-.34-.2-.09-.4-.17-.6-.24-.2-.07-.41-.14-.6-.2-.2-.06-.37-.14-.52-.22-.15-.08-.28-.18-.37-.3-.09-.12-.14-.27-.14-.44,0-.14.02-.27.07-.38.05-.12.12-.22.22-.31.1-.09.22-.15.37-.2.15-.05.32-.07.51-.07.21,0,.39.03.54.08s.28.11.39.17c.11.06.2.12.28.17.08.05.14.08.21.08s.11-.01.15-.04c.04-.03.08-.07.11-.13l.28-.54c-.24-.23-.53-.41-.86-.54-.33-.13-.7-.19-1.1-.19-.35,0-.67.05-.95.16-.28.11-.51.26-.7.44s-.33.39-.43.63c-.1.23-.15.48-.15.73,0,.32.05.58.14.79s.22.39.37.53c.15.14.33.26.52.35.2.09.4.17.6.23.2.07.4.13.6.19.2.06.37.13.52.21.15.08.28.19.37.31.09.12.14.28.14.48,0,.35-.11.63-.34.83-.22.2-.54.3-.95.3-.25,0-.47-.03-.65-.1-.18-.07-.33-.15-.46-.23-.13-.08-.24-.16-.33-.23-.09-.07-.17-.1-.25-.1-.05,0-.1.01-.15.04-.04.03-.08.06-.11.11l-.33.54c.13.14.28.26.45.38s.35.21.54.29c.19.08.39.14.6.18.21.04.43.06.65.06.38,0,.71-.06,1.01-.17.29-.12.54-.27.74-.48.2-.2.36-.44.46-.71.11-.27.16-.56.16-.87,0-.29-.05-.53-.14-.73s-.22-.37-.37-.51Z"/>
  <path class="st1" d="M235.04,186.9c-.3-.32-.67-.56-1.1-.74s-.9-.27-1.42-.27-.99.09-1.42.27c-.43.18-.79.42-1.1.74-.31.32-.54.69-.71,1.13-.17.44-.25.91-.25,1.43s.08.99.25,1.43c.17.43.4.81.71,1.12.31.31.67.56,1.1.74.43.18.9.27,1.42.27s1-.09,1.42-.27.79-.42,1.1-.74c.3-.31.54-.69.71-1.12.17-.44.25-.91.25-1.43s-.08-.99-.25-1.43c-.17-.43-.4-.81-.71-1.13ZM234.68,190.54c-.11.32-.26.59-.46.81-.2.22-.45.39-.73.51-.29.12-.61.18-.97.18s-.67-.06-.96-.18c-.29-.12-.53-.29-.73-.51-.2-.22-.36-.49-.47-.81-.11-.32-.16-.68-.16-1.08s.05-.76.16-1.08c.11-.32.27-.59.47-.81.2-.22.45-.39.73-.51.29-.12.61-.18.96-.18s.68.06.97.18c.29.12.53.29.73.51.2.22.36.49.46.81s.16.68.16,1.08-.05.76-.16,1.08Z"/>
  <path class="st1" d="M248.45,190.17c0,.28-.04.53-.12.76-.08.23-.19.42-.34.58-.15.16-.33.29-.54.38-.21.09-.45.14-.72.14s-.51-.04-.72-.14c-.21-.09-.39-.22-.53-.38-.15-.16-.26-.36-.33-.58-.08-.23-.12-.48-.12-.76v-4.19h-1.13v4.19c0,.41.07.79.2,1.14.13.35.32.65.56.9.24.25.54.45.89.59.35.14.74.21,1.18.21s.83-.07,1.18-.21c.35-.14.65-.34.89-.59.24-.25.43-.55.56-.9.13-.35.2-.73.2-1.14v-4.19h-1.13v4.19Z"/>
  <path class="st1" d="M260.97,189.93c.25-.07.48-.17.68-.29.2-.13.37-.27.5-.44.14-.17.24-.36.31-.57.07-.21.11-.44.11-.68,0-.3-.05-.57-.15-.81-.1-.24-.26-.45-.47-.62-.21-.17-.48-.31-.81-.4-.33-.09-.72-.14-1.18-.14h-2.05v6.96h1.13v-2.8h.63c.13,0,.23.02.29.05.06.04.12.09.18.17l1.62,2.34c.09.15.23.23.43.23h1.01l-1.88-2.65c-.1-.15-.22-.27-.36-.35ZM259.93,189.31h-.89v-2.45h.92c.51,0,.89.1,1.14.3.25.2.38.49.38.87,0,.19-.03.36-.1.52s-.16.29-.29.4-.29.2-.48.26-.42.09-.68.09Z"/>
  <path class="st1" d="M284.16,186.58c-.22-.19-.49-.34-.83-.45-.33-.11-.73-.16-1.18-.16h-2.17v6.96h1.13v-2.52h1.03c.44,0,.82-.06,1.15-.17s.61-.27.83-.46.39-.44.5-.71c.11-.28.17-.58.17-.91s-.05-.62-.16-.89c-.11-.27-.27-.5-.49-.69ZM283.58,188.72c-.06.17-.16.31-.29.43-.13.12-.29.21-.48.27-.19.06-.41.1-.66.1h-1.03v-2.66h1.03c.26,0,.48.03.67.09.19.06.35.15.48.26.12.11.22.25.28.41.06.16.09.34.09.55s-.03.39-.1.56Z"/>
  <path class="st1" d="M294.09,185.97l-2.76,6.96h.88c.1,0,.18-.03.24-.08.06-.05.11-.11.13-.18l.58-1.54h3l.58,1.54c.03.07.08.14.14.19.06.05.14.07.24.07h.88l-2.76-6.96h-1.15ZM293.47,190.32l.96-2.54c.04-.1.07-.21.12-.34.04-.13.08-.27.12-.42.08.3.16.55.24.75l.96,2.54h-2.38Z"/>
  <path class="st1" d="M309.12,189.54c-.15-.14-.33-.25-.52-.34-.2-.09-.4-.17-.6-.24-.21-.07-.41-.14-.6-.2-.2-.06-.37-.14-.52-.22-.15-.08-.28-.18-.37-.3s-.14-.27-.14-.44c0-.14.02-.27.07-.38.05-.12.12-.22.22-.31.1-.09.22-.15.37-.2s.32-.07.51-.07c.21,0,.39.03.54.08s.28.11.39.17c.11.06.2.12.28.17.08.05.14.08.21.08.06,0,.11-.01.14-.04.04-.03.08-.07.11-.13l.28-.54c-.24-.23-.53-.41-.86-.54-.33-.13-.7-.19-1.1-.19-.35,0-.67.05-.95.16-.28.11-.51.26-.7.44s-.33.39-.43.63c-.1.23-.15.48-.15.73,0,.32.05.58.14.79.09.21.22.39.37.53s.33.26.52.35c.2.09.4.17.6.23.2.07.4.13.6.19.2.06.37.13.52.21.15.08.28.19.37.31.09.12.14.28.14.48,0,.35-.11.63-.34.83s-.54.3-.95.3c-.25,0-.47-.03-.65-.1-.18-.07-.33-.15-.46-.23-.13-.08-.24-.16-.33-.23s-.17-.1-.25-.1c-.05,0-.11.01-.15.04-.04.03-.08.06-.11.11l-.33.54c.13.14.28.26.45.38.17.11.35.21.54.29.19.08.39.14.6.18.21.04.43.06.65.06.38,0,.71-.06,1.01-.17.29-.12.54-.27.74-.48.2-.2.36-.44.46-.71.11-.27.16-.56.16-.87,0-.29-.05-.53-.14-.73-.09-.2-.22-.37-.37-.51Z"/>
  <path class="st1" d="M321.15,189.54c-.15-.14-.33-.25-.52-.34-.2-.09-.4-.17-.6-.24-.21-.07-.41-.14-.6-.2-.2-.06-.37-.14-.52-.22-.15-.08-.28-.18-.37-.3s-.14-.27-.14-.44c0-.14.02-.27.07-.38.05-.12.12-.22.22-.31.1-.09.22-.15.37-.2s.32-.07.51-.07c.21,0,.39.03.54.08s.28.11.39.17c.11.06.2.12.28.17.08.05.14.08.21.08.06,0,.11-.01.14-.04.04-.03.08-.07.11-.13l.28-.54c-.24-.23-.53-.41-.86-.54-.33-.13-.7-.19-1.1-.19-.35,0-.67.05-.95.16-.28.11-.51.26-.7.44s-.33.39-.43.63c-.1.23-.15.48-.15.73,0,.32.05.58.14.79.09.21.22.39.37.53s.33.26.52.35c.2.09.4.17.6.23.2.07.4.13.6.19.2.06.37.13.52.21.15.08.28.19.37.31.09.12.14.28.14.48,0,.35-.11.63-.34.83s-.54.3-.95.3c-.25,0-.47-.03-.65-.1-.18-.07-.33-.15-.46-.23-.13-.08-.24-.16-.33-.23s-.17-.1-.25-.1c-.05,0-.11.01-.15.04-.04.03-.08.06-.11.11l-.33.54c.13.14.28.26.45.38.17.11.35.21.54.29.19.08.39.14.6.18.21.04.43.06.65.06.38,0,.71-.06,1.01-.17.29-.12.54-.27.74-.48.2-.2.36-.44.46-.71.11-.27.16-.56.16-.87,0-.29-.05-.53-.14-.73-.09-.2-.22-.37-.37-.51Z"/>
  <rect class="st1" x="329.65" y="185.97" width="1.14" height="6.96"/>
  <path class="st1" d="M344.78,186.9c-.3-.32-.67-.56-1.1-.74s-.9-.27-1.42-.27-.99.09-1.42.27-.79.42-1.1.74c-.31.32-.54.69-.71,1.13-.17.44-.25.91-.25,1.43s.08.99.25,1.43c.17.43.4.81.71,1.12.31.31.67.56,1.1.74s.9.27,1.42.27,1-.09,1.42-.27.79-.42,1.1-.74c.3-.31.54-.69.71-1.12.17-.44.25-.91.25-1.43s-.08-.99-.25-1.43c-.17-.43-.4-.81-.71-1.13ZM344.42,190.54c-.11.32-.26.59-.46.81s-.45.39-.73.51-.61.18-.97.18-.67-.06-.96-.18c-.29-.12-.53-.29-.74-.51-.2-.22-.36-.49-.47-.81-.11-.32-.16-.68-.16-1.08s.05-.76.16-1.08c.11-.32.27-.59.47-.81.2-.22.45-.39.74-.51.29-.12.61-.18.96-.18s.68.06.97.18.53.29.73.51.36.49.46.81c.11.32.16.68.16,1.08s-.05.76-.16,1.08Z"/>
  <path class="st1" d="M358.51,190.51c0,.08,0,.17,0,.27s.01.19.02.29l-3.83-4.91s-.06-.07-.08-.1-.05-.04-.08-.06c-.03-.01-.06-.02-.09-.03-.03,0-.07,0-.12,0h-.59v6.96h1v-4.58c0-.08,0-.16,0-.25,0-.09-.01-.18-.02-.28l3.82,4.91c.05.07.11.12.17.15.06.03.13.05.22.05h.58v-6.96h-.99v4.54Z"/>
  <path class="st0" d="M313.2,75.39l-11.4-33.6c-.04-.12-.15-.19-.27-.19l-3.69.03c-.12,0-.23.08-.27.19l-6.46,19.04c-.09.26-.45.26-.54,0l-6.48-19.07c-.04-.11-.14-.19-.26-.19l-2.95-.04c-.12,0-.23.07-.27.18l-12.86,33.64c-.14.37.13.77.53.77h2.84c.23,0,.45-.15.53-.36l7.36-19.27c.09-.25.45-.24.53.01l6.52,19.24c.08.23.29.38.54.38h2.21c.39,0,.66-.38.54-.75l-8.19-24.15c0-.1.01-.19.02-.29l.73-2.04c.16-.4.46-.25.55-.08l.16.45,8.99,26.47c.08.23.29.39.54.39h2.8c.39,0,.66-.38.54-.75l-2.56-7.55c-.06-.19-.06-.4,0-.59l3.71-10.94c.09-.26.45-.26.54,0l6.6,19.43c.08.23.29.38.54.38h2.38c.39,0,.66-.38.54-.75l-8.46-24.92c-.02-.06-.05-.29-.03-.35l.5-1.45c.16-.44.6-.65.88,0l9.19,27.08c.08.23.29.38.54.38h2.81c.39,0,.66-.38.54-.75Z"/>
  <rect class="st1" x="238.39" y="98.28" width="2.02" height="2.02"/>
  <rect class="st1" x="234.22" y="98.28" width="2.02" height="2.02"/>
  <rect class="st1" x="239.4" y="102.19" width="1.01" height="1.01"/>
  <rect class="st1" x="251.16" y="98.28" width="2.02" height="2.02"/>
  <rect class="st1" x="255.33" y="98.28" width="2.02" height="2.02"/>
  <rect class="st1" x="251.16" y="102.19" width="1.01" height="1.01"/>
  <path class="st0" d="M178.91,76.14h2.84c.23,0,.45-.15.53-.36l7.36-19.27c.09-.25.45-.24.53.01l6.52,19.24c.08.23.29.38.54.38h2.21c.39,0,.66-.38.54-.75l-8.19-24.15c0-.1.01-.19.02-.29l.73-2.04c.16-.4.46-.25.55-.08l.16.45,8.99,26.47c.08.23.29.39.54.39h2.8c.39,0,.66-.38.54-.75l-2.56-7.55c-.06-.19-.06-.4,0-.59l3.71-10.94c.09-.26.45-.26.54,0l6.6,19.43c.08.23.29.38.54.38h2.38c.39,0,.66-.38.54-.75l-8.46-24.92c-.02-.06-.05-.29-.03-.35l.5-1.45c.16-.44.6-.65.88,0l9.19,27.08c.08.23.29.38.54.38h2.81c.39,0,.66-.38.54-.75l-11.4-33.6c-.04-.12-.15-.19-.27-.19l-3.69.03c-.12,0-.23.08-.27.19l-6.46,19.04c-.09.26-.45.26-.54,0l-6.48-19.07c-.04-.11-.14-.19-.26-.19l-2.95-.04c-.12,0-.23.07-.27.18l-12.86,33.64c-.14.37.13.77.53.77Z"/>
  <g>
    <path class="st0" d="M58.71,157.67c.47,0,.96.07,1.47.2.51.13,1.05.32,1.62.57.57.25,1.11.6,1.61,1.05.5.45.96.96,1.36,1.54.4.58.72,1.28.97,2.11.24.83.36,1.74.36,2.73v10h-2.32v-10c0-1.53-.5-2.89-1.5-4.07-1-1.19-2.17-1.78-3.51-1.78s-2.49.52-3.44,1.57c-.95,1.04-1.48,2.31-1.6,3.78v6.22h-2.35v-6.22c-.07-.97-.34-1.86-.78-2.67-.45-.81-1.05-1.46-1.81-1.95s-1.57-.73-2.45-.73c-1.34,0-2.52.59-3.53,1.78-1.01,1.19-1.51,2.54-1.51,4.07v10h-2.3v-10c0-.99.12-1.9.36-2.73.24-.83.56-1.54.97-2.11.4-.58.85-1.09,1.36-1.54.5-.45,1.04-.8,1.6-1.05s1.1-.44,1.62-.57c.52-.13,1.02-.2,1.48-.2.67,0,1.37.11,2.09.34.72.22,1.46.62,2.21,1.18.76.56,1.38,1.24,1.86,2.04.49-.8,1.11-1.48,1.86-2.04.76-.56,1.49-.95,2.21-1.18.72-.22,1.41-.34,2.09-.34Z"/>
    <path class="st1" d="M77.19,157.7h9.27v2.35h-8.32v15.79h-2.38v-15.79h-8.32v-2.35h9.74Z"/>
    <path class="st0" d="M107.54,157.67c.47,0,.96.07,1.47.2.51.13,1.05.32,1.62.57.57.25,1.11.6,1.61,1.05.5.45.96.96,1.36,1.54.4.58.72,1.28.97,2.11.24.83.36,1.74.36,2.73v10h-2.32v-10c0-1.53-.5-2.89-1.5-4.07-1-1.19-2.17-1.78-3.51-1.78s-2.49.52-3.44,1.57c-.95,1.04-1.48,2.31-1.6,3.78v6.22h-2.35v-6.22c-.07-.97-.34-1.86-.78-2.67-.45-.81-1.05-1.46-1.81-1.95s-1.57-.73-2.45-.73c-1.34,0-2.52.59-3.53,1.78-1.01,1.19-1.51,2.54-1.51,4.07v10h-2.3v-10c0-.99.12-1.9.36-2.73.24-.83.56-1.54.97-2.11.4-.58.85-1.09,1.36-1.54.5-.45,1.04-.8,1.6-1.05s1.1-.44,1.62-.57c.52-.13,1.02-.2,1.48-.2.67,0,1.37.11,2.09.34.72.22,1.46.62,2.21,1.18.76.56,1.38,1.24,1.86,2.04.49-.8,1.11-1.48,1.86-2.04.76-.56,1.49-.95,2.21-1.18.72-.22,1.41-.34,2.09-.34Z"/>
    <path class="st1" d="M128.82,157.78c2.61,0,4.9.09,6.85.27,1.95.18,3.53.42,4.75.74,1.21.32,2.19.71,2.94,1.19.75.48,1.26.98,1.54,1.5.28.52.42,1.12.42,1.79,0,3.71-4.29,5.57-12.88,5.57h-3.61v7h-2.35v-18.06h2.35ZM128.82,166.52c.71.02,1.28.03,1.71.04.43,0,.97,0,1.61,0,.64,0,1.29-.02,1.95-.04.65-.02,1.34-.06,2.07-.13.73-.07,1.41-.15,2.06-.25s1.26-.24,1.86-.41c.6-.17,1.11-.36,1.54-.59.43-.22.77-.49,1.04-.81s.39-.67.39-1.06c0-1.12-1.24-1.92-3.71-2.39-2.47-.48-5.98-.71-10.51-.71v6.36Z"/>
    <path class="st1" d="M162.76,167.75c.24.02.56.18.95.49.39.31.79.71,1.19,1.2.4.5.75,1.11,1.04,1.85.29.74.43,1.48.43,2.23v2.32h-2.35v-2.32c0-1.01-.41-1.98-1.23-2.93s-1.51-1.5-2.07-1.67c-1.23.41-2.84.75-4.82,1.01-1.98.26-4,.24-6.08-.06v5.96h-2.41v-18.06h2.41c2.37,0,4.45.06,6.24.17,1.79.11,3.29.29,4.49.52,1.2.23,2.2.5,2.98.8.78.3,1.38.67,1.79,1.11.41.44.69.88.84,1.33.15.45.22.97.22,1.57,0,.5-.11.99-.32,1.46-.21.47-.47.86-.77,1.19-.3.33-.64.63-1.02.91-.38.28-.69.49-.92.62-.23.13-.43.23-.6.31ZM149.82,167.55c2.07.22,3.98.24,5.73.04,1.75-.2,3.25-.52,4.51-.98,1.26-.46,2.24-.98,2.93-1.58.69-.6,1.04-1.18,1.04-1.76,0-.28-.05-.54-.14-.78-.09-.24-.26-.46-.49-.64s-.49-.35-.77-.5c-.28-.15-.64-.28-1.09-.39-.45-.11-.89-.21-1.33-.29-.44-.08-.98-.15-1.62-.21s-1.26-.1-1.83-.14-1.28-.07-2.1-.08-1.59-.03-2.3-.03h-2.52v7.36Z"/>
    <path class="st1" d="M185.55,168h-13.97v5.49h13.97v2.38h-16.32v-18.03h16.32v2.32h-13.97v5.46h13.97v2.38Z"/>
    <path class="st1" d="M205.01,171.84l1.26,2.02c-1.96,1.31-4.18,1.96-6.66,1.96-1.64,0-3.2-.22-4.68-.66-1.47-.44-2.77-1.04-3.89-1.82s-2.01-1.73-2.67-2.87c-.66-1.14-.99-2.37-.99-3.7s.33-2.62.99-3.77c.66-1.15,1.55-2.1,2.67-2.87s2.42-1.36,3.91-1.78c1.48-.42,3.04-.63,4.66-.63,2.03,0,3.92.45,5.66,1.34l-1.29,1.99c-.41-.26-.84-.47-1.29-.62-.45-.15-.91-.25-1.37-.31-.47-.06-1.04-.08-1.71-.08-1.19,0-2.37.15-3.51.45-1.15.3-2.19.72-3.14,1.26-.94.54-1.7,1.25-2.28,2.13-.58.88-.87,1.84-.87,2.88s.3,2.07.9,2.95c.6.89,1.38,1.6,2.35,2.13.97.53,2.02.94,3.14,1.22,1.12.28,2.26.42,3.42.42s2.11-.12,2.86-.35c.75-.23,1.6-.67,2.55-1.3Z"/>
    <path class="st1" d="M210.58,175.84h-2.35v-18.03h2.35v18.03Z"/>
    <path class="st1" d="M223.01,165.62c.67.09,1.26.18,1.76.25.5.07,1.1.19,1.78.34.68.15,1.26.31,1.75.49.49.18.98.4,1.5.67.51.27.93.57,1.26.9.33.33.59.72.8,1.19.21.47.31.97.31,1.51,0,.86-.29,1.63-.87,2.31-.58.68-1.35,1.22-2.31,1.61-.96.39-1.98.69-3.07.88-1.08.2-2.18.29-3.3.29-.95,0-2.01-.12-3.16-.36-1.16-.24-2.29-.63-3.39-1.18-1.1-.54-1.84-1.16-2.21-1.85l1.62-1.62c.28.8,1.16,1.45,2.63,1.95,1.47.49,2.99.74,4.54.74,1.08,0,2.18-.12,3.29-.36,1.11-.24,2.05-.58,2.81-1.01.77-.43,1.15-.9,1.15-1.4,0-.3-.08-.57-.25-.81-.17-.24-.44-.46-.81-.64-.37-.19-.75-.35-1.12-.5-.37-.15-.88-.29-1.53-.43-.64-.14-1.19-.25-1.65-.34-.46-.08-1.07-.18-1.83-.29-.34-.06-.84-.13-1.51-.22s-1.22-.17-1.64-.24-.95-.17-1.6-.31c-.64-.14-1.17-.28-1.57-.43-.4-.15-.84-.36-1.32-.63-.48-.27-.85-.56-1.12-.88-.27-.32-.5-.71-.69-1.18-.19-.47-.28-.98-.28-1.54,0-.69.21-1.32.62-1.88.41-.56.93-1.02,1.57-1.37.63-.35,1.37-.65,2.2-.9.83-.24,1.64-.41,2.44-.5.79-.09,1.57-.14,2.34-.14,1.62,0,3.34.29,5.15.88,1.81.59,3.04,1.35,3.7,2.28l-1.62,1.62c-.45-.75-1.4-1.34-2.86-1.79s-2.9-.67-4.34-.67c-.86,0-1.69.06-2.51.18-.81.12-1.54.29-2.17.5-.64.21-1.15.48-1.54.78-.39.31-.59.64-.59.99,0,.26.05.5.15.71.1.21.27.41.52.59.24.18.48.34.73.48.24.14.57.27.99.38.42.11.8.21,1.13.29s.77.17,1.32.27c.54.09.99.16,1.36.21.36.05.84.11,1.44.18Z"/>
    <path class="st1" d="M236.87,175.84h-2.35v-18.03h2.35v18.03Z"/>
    <path class="st1" d="M245.09,158.93c1.84-.8,3.91-1.2,6.2-1.2s4.36.4,6.19,1.2c1.83.8,3.25,1.89,4.27,3.28,1.02,1.38,1.53,2.92,1.53,4.62s-.54,3.19-1.61,4.58c-1.07,1.39-2.53,2.49-4.37,3.29-1.84.8-3.84,1.2-6.01,1.2s-4.31-.4-6.16-1.2c-1.85-.8-3.29-1.9-4.31-3.29-1.03-1.39-1.54-2.93-1.54-4.61s.51-3.21,1.53-4.59c1.02-1.38,2.45-2.47,4.28-3.28ZM251.29,173.54c1.75,0,3.36-.28,4.83-.84,1.46-.56,2.64-1.36,3.51-2.39s1.32-2.2,1.32-3.49c0-1.96-.89-3.57-2.67-4.84-1.78-1.27-4.11-1.9-6.99-1.9s-5.06.63-6.89,1.89c-1.83,1.26-2.74,2.88-2.74,4.86,0,1.27.43,2.42,1.29,3.44.86,1.03,2.02,1.83,3.49,2.41,1.46.58,3.08.87,4.86.87Z"/>
    <path class="st1" d="M285.14,157.84v18h-1.62c-1.23,0-2.4-.11-3.51-.32-1.11-.21-2.09-.49-2.94-.84-.85-.35-1.65-.78-2.41-1.3-.76-.52-1.4-1.04-1.93-1.55-.53-.51-1.04-1.1-1.51-1.76-.48-.66-.86-1.26-1.15-1.79-.29-.53-.57-1.12-.84-1.75-.27-.63-.46-1.14-.57-1.53-.11-.38-.24-.8-.38-1.25-.14-.45-.22-.71-.24-.78v12.88h-2.41v-18h1.85c.34,0,.65.15.94.45.29.3.55.7.77,1.19.22.5.47,1.08.73,1.75.26.67.52,1.38.77,2.13.25.75.57,1.52.95,2.31.38.79.79,1.56,1.23,2.31.44.75.98,1.46,1.62,2.13.64.67,1.35,1.26,2.11,1.75.77.5,1.68.89,2.74,1.19s2.22.45,3.47.45c.04-1.19.04-6.41,0-15.65h2.32Z"/>
    <path class="st1" d="M306.03,165.62c.67.09,1.26.18,1.76.25.5.07,1.1.19,1.78.34.68.15,1.26.31,1.75.49.49.18.98.4,1.5.67.51.27.93.57,1.26.9.33.33.59.72.8,1.19.21.47.31.97.31,1.51,0,.86-.29,1.63-.87,2.31-.58.68-1.35,1.22-2.31,1.61-.96.39-1.98.69-3.07.88-1.08.2-2.18.29-3.3.29-.95,0-2.01-.12-3.16-.36-1.16-.24-2.29-.63-3.39-1.18-1.1-.54-1.84-1.16-2.21-1.85l1.62-1.62c.28.8,1.16,1.45,2.63,1.95,1.47.49,2.99.74,4.54.74,1.08,0,2.18-.12,3.29-.36,1.11-.24,2.05-.58,2.81-1.01.77-.43,1.15-.9,1.15-1.4,0-.3-.08-.57-.25-.81-.17-.24-.44-.46-.81-.64-.37-.19-.75-.35-1.12-.5-.37-.15-.88-.29-1.53-.43-.64-.14-1.19-.25-1.65-.34-.46-.08-1.07-.18-1.83-.29-.34-.06-.84-.13-1.51-.22s-1.22-.17-1.64-.24-.95-.17-1.6-.31c-.64-.14-1.17-.28-1.57-.43-.4-.15-.84-.36-1.32-.63-.48-.27-.85-.56-1.12-.88-.27-.32-.5-.71-.69-1.18-.19-.47-.28-.98-.28-1.54,0-.69.21-1.32.62-1.88.41-.56.93-1.02,1.57-1.37.63-.35,1.37-.65,2.2-.9.83-.24,1.64-.41,2.44-.5.79-.09,1.57-.14,2.34-.14,1.62,0,3.34.29,5.15.88,1.81.59,3.04,1.35,3.7,2.28l-1.62,1.62c-.45-.75-1.4-1.34-2.86-1.79s-2.9-.67-4.34-.67c-.86,0-1.69.06-2.51.18-.81.12-1.54.29-2.17.5-.64.21-1.15.48-1.54.78-.39.31-.59.64-.59.99,0,.26.05.5.15.71.1.21.27.41.52.59.24.18.48.34.73.48.24.14.57.27.99.38.42.11.8.21,1.13.29s.77.17,1.32.27c.54.09.99.16,1.36.21.36.05.84.11,1.44.18Z"/>
    <path class="st1" d="M322.34,158.93c1.84-.8,3.91-1.2,6.2-1.2s4.36.4,6.19,1.2c1.83.8,3.25,1.89,4.27,3.28,1.02,1.38,1.53,2.92,1.53,4.62s-.54,3.19-1.61,4.58c-1.07,1.39-2.53,2.49-4.37,3.29-1.84.8-3.84,1.2-6.01,1.2s-4.31-.4-6.16-1.2c-1.85-.8-3.29-1.9-4.31-3.29-1.03-1.39-1.54-2.93-1.54-4.61s.51-3.21,1.53-4.59c1.02-1.38,2.45-2.47,4.28-3.28ZM328.54,173.54c1.75,0,3.36-.28,4.83-.84,1.46-.56,2.64-1.36,3.51-2.39s1.32-2.2,1.32-3.49c0-1.96-.89-3.57-2.67-4.84-1.78-1.27-4.11-1.9-6.99-1.9s-5.06.63-6.89,1.89c-1.83,1.26-2.74,2.88-2.74,4.86,0,1.27.43,2.42,1.29,3.44.86,1.03,2.02,1.83,3.49,2.41,1.46.58,3.08.87,4.86.87Z"/>
    <path class="st1" d="M345.26,173.49h13.97v2.38h-16.32v-18.03h2.35v15.65Z"/>
    <path class="st1" d="M377.99,157.75h2.32v10.95c0,2.07-.87,3.79-2.6,5.14s-4.14,2.03-7.22,2.03c-1.64,0-3.11-.2-4.4-.59-1.29-.39-2.32-.92-3.09-1.6-.77-.67-1.36-1.43-1.75-2.27-.39-.84-.59-1.75-.59-2.72v-10.95h2.35v10.95c0,.88.24,1.64.71,2.3.48.65,1.1,1.16,1.86,1.51.77.35,1.56.62,2.38.78.82.17,1.66.25,2.52.25.58,0,1.18-.05,1.81-.14.62-.09,1.28-.26,1.97-.49.69-.23,1.31-.53,1.85-.88.54-.35.99-.82,1.34-1.4.35-.58.53-1.22.53-1.93v-10.95Z"/>
    <path class="st1" d="M391.4,157.7h9.27v2.35h-8.32v15.79h-2.38v-15.79h-8.32v-2.35h9.74Z"/>
    <path class="st1" d="M404.73,175.84h-2.35v-18.03h2.35v18.03Z"/>
    <path class="st1" d="M412.95,158.93c1.84-.8,3.91-1.2,6.2-1.2s4.36.4,6.19,1.2c1.83.8,3.25,1.89,4.27,3.28,1.02,1.38,1.53,2.92,1.53,4.62s-.54,3.19-1.61,4.58c-1.07,1.39-2.53,2.49-4.37,3.29-1.84.8-3.84,1.2-6.01,1.2s-4.31-.4-6.16-1.2c-1.85-.8-3.29-1.9-4.31-3.29-1.03-1.39-1.54-2.93-1.54-4.61s.51-3.21,1.53-4.59c1.02-1.38,2.45-2.47,4.28-3.28ZM419.15,173.54c1.75,0,3.36-.28,4.83-.84,1.46-.56,2.64-1.36,3.51-2.39s1.32-2.2,1.32-3.49c0-1.96-.89-3.57-2.67-4.84-1.78-1.27-4.11-1.9-6.99-1.9s-5.06.63-6.89,1.89c-1.83,1.26-2.74,2.88-2.74,4.86,0,1.27.43,2.42,1.29,3.44.86,1.03,2.02,1.83,3.49,2.41,1.46.58,3.08.87,4.86.87Z"/>
    <path class="st1" d="M453,157.84v18h-1.62c-1.23,0-2.4-.11-3.51-.32-1.11-.21-2.09-.49-2.94-.84-.85-.35-1.65-.78-2.41-1.3-.76-.52-1.4-1.04-1.93-1.55-.53-.51-1.04-1.1-1.51-1.76-.48-.66-.86-1.26-1.15-1.79-.29-.53-.57-1.12-.84-1.75-.27-.63-.46-1.14-.57-1.53-.11-.38-.24-.8-.38-1.25-.14-.45-.22-.71-.24-.78v12.88h-2.41v-18h1.85c.34,0,.65.15.94.45.29.3.55.7.77,1.19.22.5.47,1.08.73,1.75.26.67.52,1.38.77,2.13.25.75.57,1.52.95,2.31.38.79.79,1.56,1.23,2.31.44.75.98,1.46,1.62,2.13.64.67,1.35,1.26,2.11,1.75.77.5,1.68.89,2.74,1.19s2.22.45,3.47.45c.04-1.19.04-6.41,0-15.65h2.32Z"/>
  </g>
</svg>